C:\Users\Nicos\Documents\OpenSimProjects\SprintingProject\Study1\PredictiveResults\IC_pred_Sprinting_optimum_26-October-2023__23-37-47_p02_maxVel_01___IKTD_Minus_4_GRF.mot
version=1
nRows=10
nColumns=127
inDegrees=yes
endheader
time	ground_force_vx	ground_force_vy	ground_force_vz	ground_force_px	ground_force_py	ground_force_pz	ground_torque_x	ground_torque_y	ground_torque_z	1_ground_force_vx	1_ground_force_vy	1_ground_force_vz	1_ground_force_px	1_ground_force_py	1_ground_force_pz	1_ground_torque_x	1_ground_torque_y	1_ground_torque_z	2_ground_force_vx	2_ground_force_vy	2_ground_force_vz	2_ground_force_px	2_ground_force_py	2_ground_force_pz	2_ground_torque_x	2_ground_torque_y	2_ground_torque_z	3_ground_force_vx	3_ground_force_vy	3_ground_force_vz	3_ground_force_px	3_ground_force_py	3_ground_force_pz	3_ground_torque_x	3_ground_torque_y	3_ground_torque_z	4_ground_force_vx	4_ground_force_vy	4_ground_force_vz	4_ground_force_px	4_ground_force_py	4_ground_force_pz	4_ground_torque_x	4_ground_torque_y	4_ground_torque_z	5_ground_force_vx	5_ground_force_vy	5_ground_force_vz	5_ground_force_px	5_ground_force_py	5_ground_force_pz	5_ground_torque_x	5_ground_torque_y	5_ground_torque_z	6_ground_force_vx	6_ground_force_vy	6_ground_force_vz	6_ground_force_px	6_ground_force_py	6_ground_force_pz	6_ground_torque_x	6_ground_torque_y	6_ground_torque_z	7_ground_force_vx	7_ground_force_vy	7_ground_force_vz	7_ground_force_px	7_ground_force_py	7_ground_force_pz	7_ground_torque_x	7_ground_torque_y	7_ground_torque_z	8_ground_force_vx	8_ground_force_vy	8_ground_force_vz	8_ground_force_px	8_ground_force_py	8_ground_force_pz	8_ground_torque_x	8_ground_torque_y	8_ground_torque_z	9_ground_force_vx	9_ground_force_vy	9_ground_force_vz	9_ground_force_px	9_ground_force_py	9_ground_force_pz	9_ground_torque_x	9_ground_torque_y	9_ground_torque_z	10_ground_force_vx	10_ground_force_vy	10_ground_force_vz	10_ground_force_px	10_ground_force_py	10_ground_force_pz	10_ground_torque_x	10_ground_torque_y	10_ground_torque_z	11_ground_force_vx	11_ground_force_vy	11_ground_force_vz	11_ground_force_px	11_ground_force_py	11_ground_force_pz	11_ground_torque_x	11_ground_torque_y	11_ground_torque_z	12_ground_force_vx	12_ground_force_vy	12_ground_force_vz	12_ground_force_px	12_ground_force_py	12_ground_force_pz	12_ground_torque_x	12_ground_torque_y	12_ground_torque_z	13_ground_force_vx	13_ground_force_vy	13_ground_force_vz	13_ground_force_px	13_ground_force_py	13_ground_force_pz	13_ground_torque_x	13_ground_torque_y	13_ground_torque_z
0.106757	369.803828	832.655052	-94.519040	0.406638	-0.019087	0.457729	0.000000	0.000000	0.000000	132.772462	327.212354	28.788854	0.362533	-0.011115	0.474094	0.000000	0.000000	0.000000	49.809843	190.238668	28.473964	0.331559	-0.008366	0.460754	0.000000	0.000000	0.000000	95.380643	310.014061	-8.955640	0.336199	-0.011591	0.439462	0.000000	0.000000	0.000000	-0.000944	0.002547	0.000541	0.249011	0.009202	0.480149	0.000000	0.000000	0.000000	-18.585604	65.028384	12.180468	0.304049	-0.004173	0.452217	0.000000	0.000000	0.000000	-0.000022	0.000050	0.000013	0.194010	0.012601	0.418071	0.000000	0.000000	0.000000	-0.000000	0.000000	-0.000000	0.509334	0.170007	0.099734	0.000000	0.000000	0.000000	-0.000000	0.000000	-0.000000	0.497648	0.192894	0.084390	0.000000	0.000000	0.000000	-0.000000	0.000000	-0.000000	0.479872	0.205797	0.095496	0.000000	0.000000	0.000000	-0.000000	0.000000	-0.000000	0.472459	0.200912	0.114630	0.000000	0.000000	0.000000	-0.000000	0.000000	-0.000000	0.457987	0.249521	0.078219	0.000000	0.000000	0.000000	-0.000000	0.000000	-0.000000	0.466160	0.218566	0.103225	0.000000	0.000000	0.000000	-0.000000	0.000000	-0.000000	0.411316	0.269646	0.134138	0.000000	0.000000	0.000000
0.108803	403.682029	838.495913	-76.521810	0.405530	-0.019383	0.457997	0.000000	0.000000	0.000000	118.378178	279.636626	27.197019	0.362292	-0.010163	0.474050	0.000000	0.000000	0.000000	30.022538	124.793257	23.781699	0.332184	-0.006379	0.460766	0.000000	0.000000	0.000000	71.559142	230.882727	10.840797	0.336606	-0.009694	0.439483	0.000000	0.000000	0.000000	-0.000012	0.000030	0.000006	0.251472	0.013297	0.479788	0.000000	0.000000	0.000000	-5.271065	17.919831	3.353908	0.305201	-0.001462	0.452096	0.000000	0.000000	0.000000	-0.000000	0.000000	0.000000	0.197268	0.018209	0.417414	0.000000	0.000000	0.000000	-0.000000	0.000000	-0.000000	0.551291	0.167350	0.100290	0.000000	0.000000	0.000000	-0.000000	0.000000	-0.000000	0.538115	0.189962	0.084527	0.000000	0.000000	0.000000	-0.000000	0.000000	-0.000000	0.518883	0.202612	0.095462	0.000000	0.000000	0.000000	-0.000000	0.000000	-0.000000	0.511656	0.197654	0.114591	0.000000	0.000000	0.000000	-0.000000	0.000000	-0.000000	0.494413	0.245943	0.077683	0.000000	0.000000	0.000000	-0.000000	0.000000	-0.000000	0.504341	0.215180	0.102999	0.000000	0.000000	0.000000	-0.000000	0.000000	-0.000000	0.446172	0.265448	0.133146	0.000000	0.000000	0.000000
0.110286	431.292043	836.913980	-58.433344	0.404560	-0.019504	0.458165	0.000000	0.000000	0.000000	106.783061	242.424529	28.388804	0.362093	-0.009338	0.473993	0.000000	0.000000	0.000000	12.128761	81.331870	21.649359	0.332743	-0.004782	0.460772	0.000000	0.000000	0.000000	53.435913	175.204376	11.729646	0.336989	-0.008161	0.439494	0.000000	0.000000	0.000000	-0.000000	0.000001	0.000000	0.253600	0.016487	0.479530	0.000000	0.000000	0.000000	-1.409756	4.447545	0.731485	0.306217	0.000684	0.452006	0.000000	0.000000	0.000000	-0.000000	0.000000	0.000000	0.200112	0.022550	0.416944	0.000000	0.000000	0.000000	-0.000000	0.000000	-0.000000	0.581827	0.165415	0.100805	0.000000	0.000000	0.000000	-0.000000	0.000000	-0.000000	0.567580	0.187810	0.084737	0.000000	0.000000	0.000000	-0.000000	0.000000	-0.000000	0.547332	0.200254	0.095537	0.000000	0.000000	0.000000	-0.000000	0.000000	-0.000000	0.540254	0.195245	0.114668	0.000000	0.000000	0.000000	-0.000000	0.000000	-0.000000	0.520973	0.243267	0.077378	0.000000	0.000000	0.000000	-0.000000	0.000000	-0.000000	0.532191	0.212664	0.102933	0.000000	0.000000	0.000000	-0.000000	0.000000	-0.000000	0.471631	0.262306	0.132519	0.000000	0.000000	0.000000
0.110933	442.045333	833.636602	-50.829349	0.404087	-0.019530	0.458227	0.000000	0.000000	0.000000	100.995981	225.411152	28.435245	0.362000	-0.008940	0.473957	0.000000	0.000000	0.000000	1.018654	63.940611	19.389887	0.333024	-0.004041	0.460775	0.000000	0.000000	0.000000	45.901472	151.723845	10.534357	0.337187	-0.007448	0.439498	0.000000	0.000000	0.000000	-0.000000	0.000000	0.000000	0.254633	0.017936	0.479422	0.000000	0.000000	0.000000	-0.864394	2.626483	0.394990	0.306718	0.001670	0.451969	0.000000	0.000000	0.000000	-0.000000	0.000000	0.000000	0.201495	0.024514	0.416744	0.000000	0.000000	0.000000	-0.000000	0.000000	-0.000000	0.595193	0.164569	0.101058	0.000000	0.000000	0.000000	-0.000000	0.000000	-0.000000	0.580480	0.186864	0.084856	0.000000	0.000000	0.000000	-0.000000	0.000000	-0.000000	0.559802	0.199213	0.095596	0.000000	0.000000	0.000000	-0.000000	0.000000	-0.000000	0.552792	0.194182	0.114730	0.000000	0.000000	0.000000	-0.000000	0.000000	-0.000000	0.532616	0.242078	0.077268	0.000000	0.000000	0.000000	-0.000000	0.000000	-0.000000	0.544402	0.211552	0.102931	0.000000	0.000000	0.000000	-0.000000	0.000000	-0.000000	0.482804	0.260910	0.132271	0.000000	0.000000	0.000000
0.112979	472.094733	812.922099	-23.274052	0.402368	-0.019490	0.458380	0.000000	0.000000	0.000000	80.413137	169.825519	27.517140	0.361669	-0.007520	0.473796	0.000000	0.000000	0.000000	-5.834981	19.048290	1.212926	0.334087	-0.001513	0.460799	0.000000	0.000000	0.000000	5.004201	83.311271	17.632711	0.337966	-0.005012	0.439528	0.000000	0.000000	0.000000	-0.000000	0.000000	0.000000	0.258345	0.022740	0.479109	0.000000	0.000000	0.000000	-0.066837	0.181889	0.018915	0.308564	0.004984	0.451870	0.000000	0.000000	0.000000	-0.000000	0.000000	0.000000	0.206471	0.030972	0.416155	0.000000	0.000000	0.000000	-0.000000	0.000000	-0.000000	0.637532	0.161891	0.101957	0.000000	0.000000	0.000000	-0.000000	0.000000	-0.000000	0.621364	0.183856	0.085344	0.000000	0.000000	0.000000	-0.000000	0.000000	-0.000000	0.599389	0.195882	0.095886	0.000000	0.000000	0.000000	-0.000000	0.000000	-0.000000	0.592609	0.190787	0.115035	0.000000	0.000000	0.000000	-0.000000	0.000000	-0.000000	0.569587	0.238251	0.077016	0.000000	0.000000	0.000000	-0.000000	0.000000	-0.000000	0.583178	0.207988	0.103029	0.000000	0.000000	0.000000	-0.000000	0.000000	-0.000000	0.518337	0.256411	0.131600	0.000000	0.000000	0.000000
0.114462	480.508274	784.581541	2.975436	0.400933	-0.019311	0.458420	0.000000	0.000000	0.000000	62.286551	128.635170	25.686092	0.361428	-0.006314	0.473613	0.000000	0.000000	0.000000	-1.650227	5.009451	0.165618	0.335068	0.000501	0.460823	0.000000	0.000000	0.000000	-13.164179	41.868916	1.218417	0.338719	-0.003062	0.439554	0.000000	0.000000	0.000000	-0.000000	0.000000	0.000000	0.261509	0.026416	0.478915	0.000000	0.000000	0.000000	-0.005623	0.014137	0.001141	0.310194	0.007574	0.451814	0.000000	0.000000	0.000000	-0.000000	0.000000	0.000000	0.210697	0.035866	0.415779	0.000000	0.000000	0.000000	-0.000000	0.000000	-0.000000	0.668312	0.159951	0.102693	0.000000	0.000000	0.000000	-0.000000	0.000000	-0.000000	0.651108	0.181663	0.085792	0.000000	0.000000	0.000000	-0.000000	0.000000	-0.000000	0.628257	0.193437	0.096189	0.000000	0.000000	0.000000	-0.000000	0.000000	-0.000000	0.621656	0.188300	0.115355	0.000000	0.000000	0.000000	-0.000000	0.000000	-0.000000	0.596562	0.235416	0.076922	0.000000	0.000000	0.000000	-0.000000	0.000000	-0.000000	0.611469	0.205365	0.103195	0.000000	0.000000	0.000000	-0.000000	0.000000	-0.000000	0.544317	0.253076	0.131220	0.000000	0.000000	0.000000
0.115109	472.241268	766.337886	10.427848	0.400273	-0.019182	0.458415	0.000000	0.000000	0.000000	53.023607	110.621388	23.099070	0.361340	-0.005734	0.473515	0.000000	0.000000	0.000000	-1.050350	3.098643	0.088741	0.335565	0.001429	0.460834	0.000000	0.000000	0.000000	-8.706354	26.964600	0.696026	0.339110	-0.002161	0.439565	0.000000	0.000000	0.000000	-0.000000	0.000000	0.000000	0.263026	0.028069	0.478840	0.000000	0.000000	0.000000	-0.001712	0.004164	0.000303	0.310995	0.008753	0.451793	0.000000	0.000000	0.000000	-0.000000	0.000000	0.000000	0.212716	0.038051	0.415631	0.000000	0.000000	0.000000	-0.000000	0.000000	-0.000000	0.681778	0.159104	0.103033	0.000000	0.000000	0.000000	-0.000000	0.000000	-0.000000	0.664126	0.180702	0.086010	0.000000	0.000000	0.000000	-0.000000	0.000000	-0.000000	0.640911	0.192363	0.096345	0.000000	0.000000	0.000000	-0.000000	0.000000	-0.000000	0.634390	0.187208	0.115519	0.000000	0.000000	0.000000	-0.000000	0.000000	-0.000000	0.608391	0.234164	0.076904	0.000000	0.000000	0.000000	-0.000000	0.000000	-0.000000	0.623874	0.204211	0.103293	0.000000	0.000000	0.000000	-0.000000	0.000000	-0.000000	0.555725	0.251601	0.131082	0.000000	0.000000	0.000000
0.117155	441.261154	695.910209	32.277103	0.398152	-0.018519	0.458332	0.000000	0.000000	0.000000	26.905521	57.279241	13.527164	0.361214	-0.003665	0.473171	0.000000	0.000000	0.000000	-0.101422	0.279752	0.007821	0.337413	0.004549	0.460870	0.000000	0.000000	0.000000	-1.360964	3.971284	0.124193	0.340601	0.000879	0.439599	0.000000	0.000000	0.000000	-0.000000	0.000000	0.000000	0.268379	0.033459	0.478649	0.000000	0.000000	0.000000	-0.000028	0.000062	0.000004	0.313892	0.012666	0.451743	0.000000	0.000000	0.000000	-0.000000	0.000000	0.000000	0.219812	0.045131	0.415234	0.000000	0.000000	0.000000	-0.000000	0.000000	-0.000000	0.724414	0.156434	0.104176	0.000000	0.000000	0.000000	-0.000000	0.000000	-0.000000	0.705372	0.177660	0.086785	0.000000	0.000000	0.000000	-0.000000	0.000000	-0.000000	0.681081	0.188949	0.096925	0.000000	0.000000	0.000000	-0.000000	0.000000	-0.000000	0.674826	0.183741	0.116131	0.000000	0.000000	0.000000	-0.000000	0.000000	-0.000000	0.645967	0.230157	0.076939	0.000000	0.000000	0.000000	-0.000000	0.000000	-0.000000	0.663269	0.200535	0.103691	0.000000	0.000000	0.000000	-0.000000	0.000000	-0.000000	0.592019	0.246878	0.130756	0.000000	0.000000	0.000000
0.118637	414.973568	634.168156	46.400002	0.396558	-0.017797	0.458199	0.000000	0.000000	0.000000	11.935270	25.361685	6.471623	0.361254	-0.001944	0.472884	0.000000	0.000000	0.000000	-0.009890	0.026597	0.001042	0.339004	0.006982	0.460895	0.000000	0.000000	0.000000	-0.287862	0.825927	0.041133	0.341911	0.003261	0.439619	0.000000	0.000000	0.000000	-0.000000	0.000000	0.000000	0.272794	0.037515	0.478556	0.000000	0.000000	0.000000	-0.000001	0.000002	0.000000	0.316333	0.015669	0.451720	0.000000	0.000000	0.000000	-0.000000	0.000000	0.000000	0.225650	0.050417	0.415021	0.000000	0.000000	0.000000	-0.000000	0.000000	-0.000000	0.755403	0.154506	0.105058	0.000000	0.000000	0.000000	-0.000000	0.000000	-0.000000	0.735377	0.175452	0.087417	0.000000	0.000000	0.000000	-0.000000	0.000000	-0.000000	0.710373	0.186460	0.097422	0.000000	0.000000	0.000000	-0.000000	0.000000	-0.000000	0.704320	0.181216	0.116654	0.000000	0.000000	0.000000	-0.000000	0.000000	-0.000000	0.673396	0.227210	0.077047	0.000000	0.000000	0.000000	-0.000000	0.000000	-0.000000	0.692012	0.197848	0.104062	0.000000	0.000000	0.000000	-0.000000	0.000000	-0.000000	0.618566	0.243401	0.130621	0.000000	0.000000	0.000000
0.119285	403.031567	604.974797	52.433201	0.395841	-0.017417	0.458118	0.000000	0.000000	0.000000	7.078202	14.928335	3.940170	0.361301	-0.001136	0.472746	0.000000	0.000000	0.000000	-0.003202	0.008598	0.000432	0.339760	0.008088	0.460903	0.000000	0.000000	0.000000	-0.112175	0.323566	0.021589	0.342537	0.004347	0.439624	0.000000	0.000000	0.000000	-0.000000	0.000000	0.000000	0.274861	0.039322	0.478527	0.000000	0.000000	0.000000	-0.000000	0.000000	0.000000	0.317485	0.017023	0.451711	0.000000	0.000000	0.000000	-0.000000	0.000000	0.000000	0.228385	0.052764	0.414948	0.000000	0.000000	0.000000	-0.000000	0.000000	-0.000000	0.768961	0.153666	0.105455	0.000000	0.000000	0.000000	-0.000000	0.000000	-0.000000	0.748510	0.174487	0.087710	0.000000	0.000000	0.000000	-0.000000	0.000000	-0.000000	0.723212	0.185370	0.097657	0.000000	0.000000	0.000000	-0.000000	0.000000	-0.000000	0.717249	0.180112	0.116901	0.000000	0.000000	0.000000	-0.000000	0.000000	-0.000000	0.685427	0.225914	0.077115	0.000000	0.000000	0.000000	-0.000000	0.000000	-0.000000	0.704614	0.196670	0.104243	0.000000	0.000000	0.000000	-0.000000	0.000000	-0.000000	0.630224	0.241870	0.130588	0.000000	0.000000	0.000000
